<svg height="480pt" viewBox="-13 0 480 480" width="480pt" xmlns="http://www.w3.org/2000/svg"><path d="m441.632812 163.207031-51.878906-12.960937v-15.054688c-2.585937.527344-5.265625.808594-8 .808594-2.738281 0-5.417968-.28125-8-.808594v15.054688l-51.882812 12.960937c-7.136719 1.792969-12.117188 8.175781-12.117188 15.535157v61.257812h56c4.40625 0 8-3.585938 8-8s-3.59375-8-8-8h-40v-48h16v32h16v-32h48v32h16v-32h16v48h-40c-4.410156 0-8 3.585938-8 8s3.589844 8 8 8h56v-61.257812c0-7.359376-4.984375-13.742188-12.121094-15.535157zm0 0"/><path d="m245.753906 200h24v16h-24zm0 0"/><path d="m381.753906 40c-13.234375 0-24 10.769531-24 24h48c0-13.230469-10.769531-24-24-24zm0 0"/><path d="m285.753906 200h8v16h-8zm0 0"/><path d="m165.753906 200h64v16h-64zm0 0"/><path d="m269.753906 120c1.726563 0 3.375.296875 5.054688.511719l-9.34375-51.375c-1.386719-7.609375-8-13.136719-15.746094-13.136719h-103.933594c-7.738281 0-14.359375 5.519531-15.746094 13.136719l-9.34375 51.375c1.679688-.214844 3.328126-.511719 5.058594-.511719zm0 0"/><path d="m301.753906 120c4.40625 0 8-3.585938 8-8s-3.59375-8-8-8h-13.691406l2.914062 16zm0 0"/><path d="m381.753906 120c13.230469 0 24-10.769531 24-24v-16h-48v16c0 13.230469 10.765625 24 24 24zm0 0"/><path d="m373.753906 8c0-4.414062-3.59375-8-8-8-4.410156 0-8 3.585938-8 8v24.207031c4.671875-3.535156 10.054688-6.183593 16-7.390625zm0 0"/><path d="m260 136-12 48h45.753906v-5.257812c0-.039063.007813-.070313.007813-.101563l-.007813-18.640625c0-13.230469-10.769531-24-24-24zm17.753906 32h-16v-16h16zm0 0"/><path d="m243.503906 136h-91.503906l12 48h67.503906zm0 0"/><path d="m101.753906 184h45.75l-12-48h-9.75c-13.234375 0-24 10.769531-24 24zm16-32h16v16h-16zm0 0"/><path d="m293.753906 240v-8h-240v32h272v-8h-16c-8.824218 0-16-7.175781-16-16zm0 0"/><path d="m389.753906 296h32v168h-32zm0 0"/><path d="m381.753906 249.761719c-4.257812 3.839843-9.832031 6.238281-16 6.238281h-24v24h80v-24h-24c-6.167968 0-11.746094-2.40625-16-6.238281zm0 0"/><path d="m389.753906 209.472656v-17.472656h-16v17.472656c2.988282 1.0625 5.6875 2.679688 8 4.765625 2.308594-2.078125 5.007813-3.703125 8-4.765625zm0 0"/><path d="m341.753906 296h32v168h-32zm0 0"/><path d="m125.753906 200h24v16h-24zm0 0"/><path d="m4 448-4 16h59.503906l-4-16zm0 0"/><path d="m93.753906 120h10.773438l2.914062-16h-13.6875c-4.410156 0-8 3.585938-8 8s3.589844 8 8 8zm0 0"/><path d="m37.753906 8c0-4.414062-3.59375-8-8-8-4.410156 0-8 3.585938-8 8v424h16zm0 0"/><path d="m232.097656 402.34375 11.308594 11.3125 10.347656-10.34375v4.6875c0 30.871094-25.121094 56-56 56-30.882812 0-56-25.128906-56-56s25.117188-56 56-56v-16c-39.699218 0-72 32.296875-72 72s32.300782 72 72 72c39.695313 0 72-32.296875 72-72v-4.6875l10.34375 10.34375 11.308594-11.3125-29.652344-29.65625zm0 0"/><path d="m189.753906 404.6875-18.347656-18.34375-11.308594 11.3125 29.65625 29.65625 101.652344-101.65625-11.308594-11.3125zm0 0"/></svg>