<svg height="512pt" viewBox="0 0 512 512" width="512pt" xmlns="http://www.w3.org/2000/svg" xmlns:xlink="http://www.w3.org/1999/xlink"><linearGradient id="a" gradientUnits="userSpaceOnUse" x1="256" x2="256" y1=".0008" y2="511.9872"><stop offset="0" stop-color="#2af598"/><stop offset="1" stop-color="#009efd"/></linearGradient><path d="m314.546875 310.398438-20.550781-63.5625-.144532-.4375c-6.554687-18.789063-24.175781-31.410157-43.851562-31.410157l-148.171875.011719c-19.675781 0-37.296875 12.617188-43.847656 31.398438l-20.742188 64.1875c-7.351562 3.105468-14.109375 7.722656-19.902343 13.71875-11.179688 11.5625-17.335938 26.722656-17.335938 42.683593v105c0 22.054688 17.945312 40 40 40 20.363281 0 37.207031-15.296875 39.675781-35h192.648438c2.46875 19.703125 19.3125 35 39.675781 35 20.933594 0 40-16.683593 40-35v-111c0-25.113281-15.515625-46.660156-37.453125-55.589843zm-212.714844-55.398438 148.167969-.011719c2.589844 0 5.046875 1.816407 6.027344 4.441407l15.050781 46.558593h-190.320313l15.042969-46.558593c.976563-2.617188 3.433594-4.429688 6.03125-4.429688zm210.167969 161.988281c0 11.027344-8.972656 20-20 20h-232c-11.027344 0-20-8.972656-20-20v-50c0-11.382812 9.160156-21 20-21h232c11.027344 0 20 8.972657 20 20zm-181-46h91v40h-91zm156 20c0 11.042969-8.953125 20-20 20s-20-8.957031-20-20c0-11.046875 8.953125-20 20-20s20 8.953125 20 20zm-181 0c0 11.042969-8.953125 20-20 20s-20-8.957031-20-20c0-11.046875 8.953125-20 20-20s20 8.953125 20 20zm321-111c-11.046875 0-20-8.957031-20-20 0-11.046875 8.953125-20 20-20s20 8.953125 20 20c0 11.042969-8.953125 20-20 20zm-301-131c11.046875 0 20 8.953125 20 20 0 11.042969-8.953125 20-20 20s-20-8.957031-20-20c0-11.046875 8.953125-20 20-20zm-85.703125 51.9375c-.195313-1.949219-.296875-3.925781-.296875-5.925781v-46.011719c0-15.960937 6.15625-31.121093 17.335938-42.6875 5.855468-6.058593 12.703124-10.710937 20.148437-13.8125l20.53125-61.191406c6.578125-18.726563 24.171875-31.296875 43.8125-31.296875h148.171875c19.640625 0 37.234375 12.570312 43.8125 31.296875l4.574219 16.6875h-42.5625c-1.078125-2.367187-3.382813-8-5.824219-8h-148.171875c-2.640625 0-5.140625 1.898437-6.082031 4.589844l-.058594.167969-14.085938 43.246093h67.460938c-3.59375 5.625-6.582031 11.722657-8.851562 18.222657l-.226563.65625-6.824219 21.121093h-73.160156c-10.839844 0-20 9.617188-20 21v28.851563c-15.125 3.984375-28.832031 12.015625-39.703125 23.085937zm471.703125 34.0625v111c0 18.316407-19.066406 35-40 35-20.363281 0-37.207031-15.296875-39.675781-35h-42.335938c-3.007812-14.773437-9.285156-28.367187-18.039062-40h80.050781c11.027344 0 20-8.972656 20-20v-51c0-11.027343-8.972656-20-20-20h-129.242188c-15.675781-24.519531-42.9375-40-72.765624-40h180.660156l-14.601563-42.519531c-.910156-2.601562-3.410156-4.480469-6.050781-4.480469h-148.171875c-2.628906 0-5.117187 1.863281-6.066406 4.539063l-14.546875 43.453125-42.285156.007812 19.050781-56.601562c6.550781-18.78125 24.171875-31.398438 43.847656-31.398438h148.171875c19.675781 0 37.296875 12.617188 43.847656 31.398438l20.597656 59.972656c21.992188 8.90625 37.554688 30.480469 37.554688 55.628906zm-165.246094 45-12.933594-40h48.179688v40zm0 0" fill="url(#a)"/></svg>